<?xml version="1.0" encoding="utf-8" standalone="no"?>
<!DOCTYPE svg PUBLIC "-//W3C//DTD SVG 1.1//EN"
  "http://www.w3.org/Graphics/SVG/1.1/DTD/svg11.dtd">
<svg xmlns:xlink="http://www.w3.org/1999/xlink" width="1638.4pt" height="840.32pt" viewBox="0 0 1638.4 840.32" xmlns="http://www.w3.org/2000/svg" version="1.1">
 <metadata>
  <rdf:RDF xmlns:dc="http://purl.org/dc/elements/1.1/" xmlns:cc="http://creativecommons.org/ns#" xmlns:rdf="http://www.w3.org/1999/02/22-rdf-syntax-ns#">
   <cc:Work>
    <dc:type rdf:resource="http://purl.org/dc/dcmitype/StillImage"/>
    <dc:date>2022-08-11T02:45:55.350783</dc:date>
    <dc:format>image/svg+xml</dc:format>
    <dc:creator>
     <cc:Agent>
      <dc:title>Matplotlib v3.5.2, https://matplotlib.org/</dc:title>
     </cc:Agent>
    </dc:creator>
   </cc:Work>
  </rdf:RDF>
 </metadata>
 <defs>
  <style type="text/css">*{stroke-linejoin: round; stroke-linecap: butt}</style>
 </defs>
 <g id="figure_1">
  <g id="patch_1">
   <path d="M 0 840.32 
L 1638.4 840.32 
L 1638.4 0 
L 0 0 
z
" style="fill: #ffffff"/>
  </g>
  <g id="axes_1">
   <g id="patch_2">
    <path d="M 163.84 756.288 
L 1146.88 756.288 
L 1146.88 126.048 
L 163.84 126.048 
z
" style="fill: #ffffff"/>
   </g>
   <g id="matplotlib.axis_1">
    <g id="xtick_1">
     <g id="line2d_1">
      <path d="M 249.016232 756.288 
L 249.016232 126.048 
" clip-path="url(#p68b7f915ca)" style="fill: none; stroke: #b0b0b0; stroke-width: 0.8; stroke-linecap: square"/>
     </g>
     <g id="line2d_2">
      <defs>
       <path id="mbc56278f95" d="M 0 0 
L 0 3.5 
" style="stroke: #000000; stroke-width: 0.8"/>
      </defs>
      <g>
       <use xlink:href="#mbc56278f95" x="249.016232" y="756.288" style="stroke: #000000; stroke-width: 0.8"/>
      </g>
     </g>
     <g id="text_1">
      <!-- 0 -->
      <g transform="translate(245.834982 770.886438)scale(0.1 -0.1)">
       <defs>
        <path id="DejaVuSans-30" d="M 2034 4250 
Q 1547 4250 1301 3770 
Q 1056 3291 1056 2328 
Q 1056 1369 1301 889 
Q 1547 409 2034 409 
Q 2525 409 2770 889 
Q 3016 1369 3016 2328 
Q 3016 3291 2770 3770 
Q 2525 4250 2034 4250 
z
M 2034 4750 
Q 2819 4750 3233 4129 
Q 3647 3509 3647 2328 
Q 3647 1150 3233 529 
Q 2819 -91 2034 -91 
Q 1250 -91 836 529 
Q 422 1150 422 2328 
Q 422 3509 836 4129 
Q 1250 4750 2034 4750 
z
" transform="scale(0.015625)"/>
       </defs>
       <use xlink:href="#DejaVuSans-30"/>
      </g>
     </g>
    </g>
    <g id="xtick_2">
     <g id="line2d_3">
      <path d="M 390.797028 756.288 
L 390.797028 126.048 
" clip-path="url(#p68b7f915ca)" style="fill: none; stroke: #b0b0b0; stroke-width: 0.8; stroke-linecap: square"/>
     </g>
     <g id="line2d_4">
      <g>
       <use xlink:href="#mbc56278f95" x="390.797028" y="756.288" style="stroke: #000000; stroke-width: 0.8"/>
      </g>
     </g>
     <g id="text_2">
      <!-- 1 -->
      <g transform="translate(387.615778 770.886438)scale(0.1 -0.1)">
       <defs>
        <path id="DejaVuSans-31" d="M 794 531 
L 1825 531 
L 1825 4091 
L 703 3866 
L 703 4441 
L 1819 4666 
L 2450 4666 
L 2450 531 
L 3481 531 
L 3481 0 
L 794 0 
L 794 531 
z
" transform="scale(0.015625)"/>
       </defs>
       <use xlink:href="#DejaVuSans-31"/>
      </g>
     </g>
    </g>
    <g id="xtick_3">
     <g id="line2d_5">
      <path d="M 532.577823 756.288 
L 532.577823 126.048 
" clip-path="url(#p68b7f915ca)" style="fill: none; stroke: #b0b0b0; stroke-width: 0.8; stroke-linecap: square"/>
     </g>
     <g id="line2d_6">
      <g>
       <use xlink:href="#mbc56278f95" x="532.577823" y="756.288" style="stroke: #000000; stroke-width: 0.8"/>
      </g>
     </g>
     <g id="text_3">
      <!-- 2 -->
      <g transform="translate(529.396573 770.886438)scale(0.1 -0.1)">
       <defs>
        <path id="DejaVuSans-32" d="M 1228 531 
L 3431 531 
L 3431 0 
L 469 0 
L 469 531 
Q 828 903 1448 1529 
Q 2069 2156 2228 2338 
Q 2531 2678 2651 2914 
Q 2772 3150 2772 3378 
Q 2772 3750 2511 3984 
Q 2250 4219 1831 4219 
Q 1534 4219 1204 4116 
Q 875 4013 500 3803 
L 500 4441 
Q 881 4594 1212 4672 
Q 1544 4750 1819 4750 
Q 2544 4750 2975 4387 
Q 3406 4025 3406 3419 
Q 3406 3131 3298 2873 
Q 3191 2616 2906 2266 
Q 2828 2175 2409 1742 
Q 1991 1309 1228 531 
z
" transform="scale(0.015625)"/>
       </defs>
       <use xlink:href="#DejaVuSans-32"/>
      </g>
     </g>
    </g>
    <g id="xtick_4">
     <g id="line2d_7">
      <path d="M 674.358619 756.288 
L 674.358619 126.048 
" clip-path="url(#p68b7f915ca)" style="fill: none; stroke: #b0b0b0; stroke-width: 0.8; stroke-linecap: square"/>
     </g>
     <g id="line2d_8">
      <g>
       <use xlink:href="#mbc56278f95" x="674.358619" y="756.288" style="stroke: #000000; stroke-width: 0.8"/>
      </g>
     </g>
     <g id="text_4">
      <!-- 3 -->
      <g transform="translate(671.177369 770.886438)scale(0.1 -0.1)">
       <defs>
        <path id="DejaVuSans-33" d="M 2597 2516 
Q 3050 2419 3304 2112 
Q 3559 1806 3559 1356 
Q 3559 666 3084 287 
Q 2609 -91 1734 -91 
Q 1441 -91 1130 -33 
Q 819 25 488 141 
L 488 750 
Q 750 597 1062 519 
Q 1375 441 1716 441 
Q 2309 441 2620 675 
Q 2931 909 2931 1356 
Q 2931 1769 2642 2001 
Q 2353 2234 1838 2234 
L 1294 2234 
L 1294 2753 
L 1863 2753 
Q 2328 2753 2575 2939 
Q 2822 3125 2822 3475 
Q 2822 3834 2567 4026 
Q 2313 4219 1838 4219 
Q 1578 4219 1281 4162 
Q 984 4106 628 3988 
L 628 4550 
Q 988 4650 1302 4700 
Q 1616 4750 1894 4750 
Q 2613 4750 3031 4423 
Q 3450 4097 3450 3541 
Q 3450 3153 3228 2886 
Q 3006 2619 2597 2516 
z
" transform="scale(0.015625)"/>
       </defs>
       <use xlink:href="#DejaVuSans-33"/>
      </g>
     </g>
    </g>
    <g id="xtick_5">
     <g id="line2d_9">
      <path d="M 816.139414 756.288 
L 816.139414 126.048 
" clip-path="url(#p68b7f915ca)" style="fill: none; stroke: #b0b0b0; stroke-width: 0.8; stroke-linecap: square"/>
     </g>
     <g id="line2d_10">
      <g>
       <use xlink:href="#mbc56278f95" x="816.139414" y="756.288" style="stroke: #000000; stroke-width: 0.8"/>
      </g>
     </g>
     <g id="text_5">
      <!-- 4 -->
      <g transform="translate(812.958164 770.886438)scale(0.1 -0.1)">
       <defs>
        <path id="DejaVuSans-34" d="M 2419 4116 
L 825 1625 
L 2419 1625 
L 2419 4116 
z
M 2253 4666 
L 3047 4666 
L 3047 1625 
L 3713 1625 
L 3713 1100 
L 3047 1100 
L 3047 0 
L 2419 0 
L 2419 1100 
L 313 1100 
L 313 1709 
L 2253 4666 
z
" transform="scale(0.015625)"/>
       </defs>
       <use xlink:href="#DejaVuSans-34"/>
      </g>
     </g>
    </g>
    <g id="xtick_6">
     <g id="line2d_11">
      <path d="M 957.920209 756.288 
L 957.920209 126.048 
" clip-path="url(#p68b7f915ca)" style="fill: none; stroke: #b0b0b0; stroke-width: 0.8; stroke-linecap: square"/>
     </g>
     <g id="line2d_12">
      <g>
       <use xlink:href="#mbc56278f95" x="957.920209" y="756.288" style="stroke: #000000; stroke-width: 0.8"/>
      </g>
     </g>
     <g id="text_6">
      <!-- 5 -->
      <g transform="translate(954.738959 770.886438)scale(0.1 -0.1)">
       <defs>
        <path id="DejaVuSans-35" d="M 691 4666 
L 3169 4666 
L 3169 4134 
L 1269 4134 
L 1269 2991 
Q 1406 3038 1543 3061 
Q 1681 3084 1819 3084 
Q 2600 3084 3056 2656 
Q 3513 2228 3513 1497 
Q 3513 744 3044 326 
Q 2575 -91 1722 -91 
Q 1428 -91 1123 -41 
Q 819 9 494 109 
L 494 744 
Q 775 591 1075 516 
Q 1375 441 1709 441 
Q 2250 441 2565 725 
Q 2881 1009 2881 1497 
Q 2881 1984 2565 2268 
Q 2250 2553 1709 2553 
Q 1456 2553 1204 2497 
Q 953 2441 691 2322 
L 691 4666 
z
" transform="scale(0.015625)"/>
       </defs>
       <use xlink:href="#DejaVuSans-35"/>
      </g>
     </g>
    </g>
    <g id="xtick_7">
     <g id="line2d_13">
      <path d="M 1099.701005 756.288 
L 1099.701005 126.048 
" clip-path="url(#p68b7f915ca)" style="fill: none; stroke: #b0b0b0; stroke-width: 0.8; stroke-linecap: square"/>
     </g>
     <g id="line2d_14">
      <g>
       <use xlink:href="#mbc56278f95" x="1099.701005" y="756.288" style="stroke: #000000; stroke-width: 0.8"/>
      </g>
     </g>
     <g id="text_7">
      <!-- 6 -->
      <g transform="translate(1096.519755 770.886438)scale(0.1 -0.1)">
       <defs>
        <path id="DejaVuSans-36" d="M 2113 2584 
Q 1688 2584 1439 2293 
Q 1191 2003 1191 1497 
Q 1191 994 1439 701 
Q 1688 409 2113 409 
Q 2538 409 2786 701 
Q 3034 994 3034 1497 
Q 3034 2003 2786 2293 
Q 2538 2584 2113 2584 
z
M 3366 4563 
L 3366 3988 
Q 3128 4100 2886 4159 
Q 2644 4219 2406 4219 
Q 1781 4219 1451 3797 
Q 1122 3375 1075 2522 
Q 1259 2794 1537 2939 
Q 1816 3084 2150 3084 
Q 2853 3084 3261 2657 
Q 3669 2231 3669 1497 
Q 3669 778 3244 343 
Q 2819 -91 2113 -91 
Q 1303 -91 875 529 
Q 447 1150 447 2328 
Q 447 3434 972 4092 
Q 1497 4750 2381 4750 
Q 2619 4750 2861 4703 
Q 3103 4656 3366 4563 
z
" transform="scale(0.015625)"/>
       </defs>
       <use xlink:href="#DejaVuSans-36"/>
      </g>
     </g>
    </g>
    <g id="text_8">
     <!-- time (in seconds) -->
     <g transform="translate(611.988906 784.564563)scale(0.1 -0.1)">
      <defs>
       <path id="DejaVuSans-74" d="M 1172 4494 
L 1172 3500 
L 2356 3500 
L 2356 3053 
L 1172 3053 
L 1172 1153 
Q 1172 725 1289 603 
Q 1406 481 1766 481 
L 2356 481 
L 2356 0 
L 1766 0 
Q 1100 0 847 248 
Q 594 497 594 1153 
L 594 3053 
L 172 3053 
L 172 3500 
L 594 3500 
L 594 4494 
L 1172 4494 
z
" transform="scale(0.015625)"/>
       <path id="DejaVuSans-69" d="M 603 3500 
L 1178 3500 
L 1178 0 
L 603 0 
L 603 3500 
z
M 603 4863 
L 1178 4863 
L 1178 4134 
L 603 4134 
L 603 4863 
z
" transform="scale(0.015625)"/>
       <path id="DejaVuSans-6d" d="M 3328 2828 
Q 3544 3216 3844 3400 
Q 4144 3584 4550 3584 
Q 5097 3584 5394 3201 
Q 5691 2819 5691 2113 
L 5691 0 
L 5113 0 
L 5113 2094 
Q 5113 2597 4934 2840 
Q 4756 3084 4391 3084 
Q 3944 3084 3684 2787 
Q 3425 2491 3425 1978 
L 3425 0 
L 2847 0 
L 2847 2094 
Q 2847 2600 2669 2842 
Q 2491 3084 2119 3084 
Q 1678 3084 1418 2786 
Q 1159 2488 1159 1978 
L 1159 0 
L 581 0 
L 581 3500 
L 1159 3500 
L 1159 2956 
Q 1356 3278 1631 3431 
Q 1906 3584 2284 3584 
Q 2666 3584 2933 3390 
Q 3200 3197 3328 2828 
z
" transform="scale(0.015625)"/>
       <path id="DejaVuSans-65" d="M 3597 1894 
L 3597 1613 
L 953 1613 
Q 991 1019 1311 708 
Q 1631 397 2203 397 
Q 2534 397 2845 478 
Q 3156 559 3463 722 
L 3463 178 
Q 3153 47 2828 -22 
Q 2503 -91 2169 -91 
Q 1331 -91 842 396 
Q 353 884 353 1716 
Q 353 2575 817 3079 
Q 1281 3584 2069 3584 
Q 2775 3584 3186 3129 
Q 3597 2675 3597 1894 
z
M 3022 2063 
Q 3016 2534 2758 2815 
Q 2500 3097 2075 3097 
Q 1594 3097 1305 2825 
Q 1016 2553 972 2059 
L 3022 2063 
z
" transform="scale(0.015625)"/>
       <path id="DejaVuSans-20" transform="scale(0.015625)"/>
       <path id="DejaVuSans-28" d="M 1984 4856 
Q 1566 4138 1362 3434 
Q 1159 2731 1159 2009 
Q 1159 1288 1364 580 
Q 1569 -128 1984 -844 
L 1484 -844 
Q 1016 -109 783 600 
Q 550 1309 550 2009 
Q 550 2706 781 3412 
Q 1013 4119 1484 4856 
L 1984 4856 
z
" transform="scale(0.015625)"/>
       <path id="DejaVuSans-6e" d="M 3513 2113 
L 3513 0 
L 2938 0 
L 2938 2094 
Q 2938 2591 2744 2837 
Q 2550 3084 2163 3084 
Q 1697 3084 1428 2787 
Q 1159 2491 1159 1978 
L 1159 0 
L 581 0 
L 581 3500 
L 1159 3500 
L 1159 2956 
Q 1366 3272 1645 3428 
Q 1925 3584 2291 3584 
Q 2894 3584 3203 3211 
Q 3513 2838 3513 2113 
z
" transform="scale(0.015625)"/>
       <path id="DejaVuSans-73" d="M 2834 3397 
L 2834 2853 
Q 2591 2978 2328 3040 
Q 2066 3103 1784 3103 
Q 1356 3103 1142 2972 
Q 928 2841 928 2578 
Q 928 2378 1081 2264 
Q 1234 2150 1697 2047 
L 1894 2003 
Q 2506 1872 2764 1633 
Q 3022 1394 3022 966 
Q 3022 478 2636 193 
Q 2250 -91 1575 -91 
Q 1294 -91 989 -36 
Q 684 19 347 128 
L 347 722 
Q 666 556 975 473 
Q 1284 391 1588 391 
Q 1994 391 2212 530 
Q 2431 669 2431 922 
Q 2431 1156 2273 1281 
Q 2116 1406 1581 1522 
L 1381 1569 
Q 847 1681 609 1914 
Q 372 2147 372 2553 
Q 372 3047 722 3315 
Q 1072 3584 1716 3584 
Q 2034 3584 2315 3537 
Q 2597 3491 2834 3397 
z
" transform="scale(0.015625)"/>
       <path id="DejaVuSans-63" d="M 3122 3366 
L 3122 2828 
Q 2878 2963 2633 3030 
Q 2388 3097 2138 3097 
Q 1578 3097 1268 2742 
Q 959 2388 959 1747 
Q 959 1106 1268 751 
Q 1578 397 2138 397 
Q 2388 397 2633 464 
Q 2878 531 3122 666 
L 3122 134 
Q 2881 22 2623 -34 
Q 2366 -91 2075 -91 
Q 1284 -91 818 406 
Q 353 903 353 1747 
Q 353 2603 823 3093 
Q 1294 3584 2113 3584 
Q 2378 3584 2631 3529 
Q 2884 3475 3122 3366 
z
" transform="scale(0.015625)"/>
       <path id="DejaVuSans-6f" d="M 1959 3097 
Q 1497 3097 1228 2736 
Q 959 2375 959 1747 
Q 959 1119 1226 758 
Q 1494 397 1959 397 
Q 2419 397 2687 759 
Q 2956 1122 2956 1747 
Q 2956 2369 2687 2733 
Q 2419 3097 1959 3097 
z
M 1959 3584 
Q 2709 3584 3137 3096 
Q 3566 2609 3566 1747 
Q 3566 888 3137 398 
Q 2709 -91 1959 -91 
Q 1206 -91 779 398 
Q 353 888 353 1747 
Q 353 2609 779 3096 
Q 1206 3584 1959 3584 
z
" transform="scale(0.015625)"/>
       <path id="DejaVuSans-64" d="M 2906 2969 
L 2906 4863 
L 3481 4863 
L 3481 0 
L 2906 0 
L 2906 525 
Q 2725 213 2448 61 
Q 2172 -91 1784 -91 
Q 1150 -91 751 415 
Q 353 922 353 1747 
Q 353 2572 751 3078 
Q 1150 3584 1784 3584 
Q 2172 3584 2448 3432 
Q 2725 3281 2906 2969 
z
M 947 1747 
Q 947 1113 1208 752 
Q 1469 391 1925 391 
Q 2381 391 2643 752 
Q 2906 1113 2906 1747 
Q 2906 2381 2643 2742 
Q 2381 3103 1925 3103 
Q 1469 3103 1208 2742 
Q 947 2381 947 1747 
z
" transform="scale(0.015625)"/>
       <path id="DejaVuSans-29" d="M 513 4856 
L 1013 4856 
Q 1481 4119 1714 3412 
Q 1947 2706 1947 2009 
Q 1947 1309 1714 600 
Q 1481 -109 1013 -844 
L 513 -844 
Q 928 -128 1133 580 
Q 1338 1288 1338 2009 
Q 1338 2731 1133 3434 
Q 928 4138 513 4856 
z
" transform="scale(0.015625)"/>
      </defs>
      <use xlink:href="#DejaVuSans-74"/>
      <use xlink:href="#DejaVuSans-69" x="39.208984"/>
      <use xlink:href="#DejaVuSans-6d" x="66.992188"/>
      <use xlink:href="#DejaVuSans-65" x="164.404297"/>
      <use xlink:href="#DejaVuSans-20" x="225.927734"/>
      <use xlink:href="#DejaVuSans-28" x="257.714844"/>
      <use xlink:href="#DejaVuSans-69" x="296.728516"/>
      <use xlink:href="#DejaVuSans-6e" x="324.511719"/>
      <use xlink:href="#DejaVuSans-20" x="387.890625"/>
      <use xlink:href="#DejaVuSans-73" x="419.677734"/>
      <use xlink:href="#DejaVuSans-65" x="471.777344"/>
      <use xlink:href="#DejaVuSans-63" x="533.300781"/>
      <use xlink:href="#DejaVuSans-6f" x="588.28125"/>
      <use xlink:href="#DejaVuSans-6e" x="649.462891"/>
      <use xlink:href="#DejaVuSans-64" x="712.841797"/>
      <use xlink:href="#DejaVuSans-73" x="776.318359"/>
      <use xlink:href="#DejaVuSans-29" x="828.417969"/>
     </g>
    </g>
   </g>
   <g id="matplotlib.axis_2">
    <g id="ytick_1">
     <g id="line2d_15">
      <path d="M 163.84 705.640424 
L 1146.88 705.640424 
" clip-path="url(#p68b7f915ca)" style="fill: none; stroke: #b0b0b0; stroke-width: 0.8; stroke-linecap: square"/>
     </g>
     <g id="line2d_16">
      <defs>
       <path id="m0a3bd7e577" d="M 0 0 
L -3.5 0 
" style="stroke: #000000; stroke-width: 0.8"/>
      </defs>
      <g>
       <use xlink:href="#m0a3bd7e577" x="163.84" y="705.640424" style="stroke: #000000; stroke-width: 0.8"/>
      </g>
     </g>
     <g id="text_9">
      <!-- 0 -->
      <g transform="translate(150.4775 709.439643)scale(0.1 -0.1)">
       <use xlink:href="#DejaVuSans-30"/>
      </g>
     </g>
    </g>
    <g id="ytick_2">
     <g id="line2d_17">
      <path d="M 163.84 579.501736 
L 1146.88 579.501736 
" clip-path="url(#p68b7f915ca)" style="fill: none; stroke: #b0b0b0; stroke-width: 0.8; stroke-linecap: square"/>
     </g>
     <g id="line2d_18">
      <g>
       <use xlink:href="#m0a3bd7e577" x="163.84" y="579.501736" style="stroke: #000000; stroke-width: 0.8"/>
      </g>
     </g>
     <g id="text_10">
      <!-- 50 -->
      <g transform="translate(144.115 583.300955)scale(0.1 -0.1)">
       <use xlink:href="#DejaVuSans-35"/>
       <use xlink:href="#DejaVuSans-30" x="63.623047"/>
      </g>
     </g>
    </g>
    <g id="ytick_3">
     <g id="line2d_19">
      <path d="M 163.84 453.363048 
L 1146.88 453.363048 
" clip-path="url(#p68b7f915ca)" style="fill: none; stroke: #b0b0b0; stroke-width: 0.8; stroke-linecap: square"/>
     </g>
     <g id="line2d_20">
      <g>
       <use xlink:href="#m0a3bd7e577" x="163.84" y="453.363048" style="stroke: #000000; stroke-width: 0.8"/>
      </g>
     </g>
     <g id="text_11">
      <!-- 100 -->
      <g transform="translate(137.7525 457.162267)scale(0.1 -0.1)">
       <use xlink:href="#DejaVuSans-31"/>
       <use xlink:href="#DejaVuSans-30" x="63.623047"/>
       <use xlink:href="#DejaVuSans-30" x="127.246094"/>
      </g>
     </g>
    </g>
    <g id="ytick_4">
     <g id="line2d_21">
      <path d="M 163.84 327.22436 
L 1146.88 327.22436 
" clip-path="url(#p68b7f915ca)" style="fill: none; stroke: #b0b0b0; stroke-width: 0.8; stroke-linecap: square"/>
     </g>
     <g id="line2d_22">
      <g>
       <use xlink:href="#m0a3bd7e577" x="163.84" y="327.22436" style="stroke: #000000; stroke-width: 0.8"/>
      </g>
     </g>
     <g id="text_12">
      <!-- 150 -->
      <g transform="translate(137.7525 331.023579)scale(0.1 -0.1)">
       <use xlink:href="#DejaVuSans-31"/>
       <use xlink:href="#DejaVuSans-35" x="63.623047"/>
       <use xlink:href="#DejaVuSans-30" x="127.246094"/>
      </g>
     </g>
    </g>
    <g id="ytick_5">
     <g id="line2d_23">
      <path d="M 163.84 201.085672 
L 1146.88 201.085672 
" clip-path="url(#p68b7f915ca)" style="fill: none; stroke: #b0b0b0; stroke-width: 0.8; stroke-linecap: square"/>
     </g>
     <g id="line2d_24">
      <g>
       <use xlink:href="#m0a3bd7e577" x="163.84" y="201.085672" style="stroke: #000000; stroke-width: 0.8"/>
      </g>
     </g>
     <g id="text_13">
      <!-- 200 -->
      <g transform="translate(137.7525 204.884891)scale(0.1 -0.1)">
       <use xlink:href="#DejaVuSans-32"/>
       <use xlink:href="#DejaVuSans-30" x="63.623047"/>
       <use xlink:href="#DejaVuSans-30" x="127.246094"/>
      </g>
     </g>
    </g>
    <g id="text_14">
     <!-- memory used (in MiB) -->
     <g transform="translate(131.672813 496.443781)rotate(-90)scale(0.1 -0.1)">
      <defs>
       <path id="DejaVuSans-72" d="M 2631 2963 
Q 2534 3019 2420 3045 
Q 2306 3072 2169 3072 
Q 1681 3072 1420 2755 
Q 1159 2438 1159 1844 
L 1159 0 
L 581 0 
L 581 3500 
L 1159 3500 
L 1159 2956 
Q 1341 3275 1631 3429 
Q 1922 3584 2338 3584 
Q 2397 3584 2469 3576 
Q 2541 3569 2628 3553 
L 2631 2963 
z
" transform="scale(0.015625)"/>
       <path id="DejaVuSans-79" d="M 2059 -325 
Q 1816 -950 1584 -1140 
Q 1353 -1331 966 -1331 
L 506 -1331 
L 506 -850 
L 844 -850 
Q 1081 -850 1212 -737 
Q 1344 -625 1503 -206 
L 1606 56 
L 191 3500 
L 800 3500 
L 1894 763 
L 2988 3500 
L 3597 3500 
L 2059 -325 
z
" transform="scale(0.015625)"/>
       <path id="DejaVuSans-75" d="M 544 1381 
L 544 3500 
L 1119 3500 
L 1119 1403 
Q 1119 906 1312 657 
Q 1506 409 1894 409 
Q 2359 409 2629 706 
Q 2900 1003 2900 1516 
L 2900 3500 
L 3475 3500 
L 3475 0 
L 2900 0 
L 2900 538 
Q 2691 219 2414 64 
Q 2138 -91 1772 -91 
Q 1169 -91 856 284 
Q 544 659 544 1381 
z
M 1991 3584 
L 1991 3584 
z
" transform="scale(0.015625)"/>
       <path id="DejaVuSans-4d" d="M 628 4666 
L 1569 4666 
L 2759 1491 
L 3956 4666 
L 4897 4666 
L 4897 0 
L 4281 0 
L 4281 4097 
L 3078 897 
L 2444 897 
L 1241 4097 
L 1241 0 
L 628 0 
L 628 4666 
z
" transform="scale(0.015625)"/>
       <path id="DejaVuSans-42" d="M 1259 2228 
L 1259 519 
L 2272 519 
Q 2781 519 3026 730 
Q 3272 941 3272 1375 
Q 3272 1813 3026 2020 
Q 2781 2228 2272 2228 
L 1259 2228 
z
M 1259 4147 
L 1259 2741 
L 2194 2741 
Q 2656 2741 2882 2914 
Q 3109 3088 3109 3444 
Q 3109 3797 2882 3972 
Q 2656 4147 2194 4147 
L 1259 4147 
z
M 628 4666 
L 2241 4666 
Q 2963 4666 3353 4366 
Q 3744 4066 3744 3513 
Q 3744 3084 3544 2831 
Q 3344 2578 2956 2516 
Q 3422 2416 3680 2098 
Q 3938 1781 3938 1306 
Q 3938 681 3513 340 
Q 3088 0 2303 0 
L 628 0 
L 628 4666 
z
" transform="scale(0.015625)"/>
      </defs>
      <use xlink:href="#DejaVuSans-6d"/>
      <use xlink:href="#DejaVuSans-65" x="97.412109"/>
      <use xlink:href="#DejaVuSans-6d" x="158.935547"/>
      <use xlink:href="#DejaVuSans-6f" x="256.347656"/>
      <use xlink:href="#DejaVuSans-72" x="317.529297"/>
      <use xlink:href="#DejaVuSans-79" x="358.642578"/>
      <use xlink:href="#DejaVuSans-20" x="417.822266"/>
      <use xlink:href="#DejaVuSans-75" x="449.609375"/>
      <use xlink:href="#DejaVuSans-73" x="512.988281"/>
      <use xlink:href="#DejaVuSans-65" x="565.087891"/>
      <use xlink:href="#DejaVuSans-64" x="626.611328"/>
      <use xlink:href="#DejaVuSans-20" x="690.087891"/>
      <use xlink:href="#DejaVuSans-28" x="721.875"/>
      <use xlink:href="#DejaVuSans-69" x="760.888672"/>
      <use xlink:href="#DejaVuSans-6e" x="788.671875"/>
      <use xlink:href="#DejaVuSans-20" x="852.050781"/>
      <use xlink:href="#DejaVuSans-4d" x="883.837891"/>
      <use xlink:href="#DejaVuSans-69" x="970.117188"/>
      <use xlink:href="#DejaVuSans-42" x="997.900391"/>
      <use xlink:href="#DejaVuSans-29" x="1066.503906"/>
     </g>
    </g>
   </g>
   <g id="line2d_25">
    <path d="M 249.016232 701.600045 
L 263.336103 666.251648 
L 277.655973 646.877533 
L 291.834039 631.583217 
L 306.153909 617.698108 
L 320.473746 604.492964 
L 334.651846 594.677797 
L 348.829912 577.077507 
L 363.008012 553.229414 
L 377.186078 524.78908 
L 391.505948 515.141441 
L 405.825785 509.376509 
L 420.003884 501.818042 
L 434.323755 497.8565 
L 448.501821 485.488995 
L 462.821691 456.270151 
L 476.999757 431.83078 
L 491.177823 422.143723 
L 505.497693 412.604484 
L 519.817564 402.306444 
L 534.137434 393.319062 
L 548.3155 385.868996 
L 562.493566 372.68356 
L 576.813436 370.919589 
L 590.991503 362.976794 
L 605.169602 355.240946 
L 619.489473 347.918988 
L 633.667539 337.029673 
L 636.361381 336.773563 
L 647.987409 260.991695 
L 662.307246 234.059112 
L 676.485345 215.522638 
L 690.805216 213.157538 
L 705.125052 196.217506 
L 719.444923 180.735955 
L 733.622989 226.924395 
L 744.823671 314.541619 
L 744.823671 314.541619 
L 747.942859 311.062841 
L 762.262729 309.870436 
L 776.582566 307.347663 
L 790.902436 307.219551 
L 805.222307 296.192272 
L 819.542177 285.992776 
L 833.720243 282.770326 
L 848.040113 282.592945 
L 862.218179 283.943023 
L 876.53805 277.941581 
L 890.716116 271.526246 
L 905.035986 271.516392 
L 919.214052 270.915263 
L 933.392152 265.101056 
L 947.711988 264.490071 
L 962.031859 266.993136 
L 976.209925 273.093125 
L 990.388025 270.481658 
L 1004.566091 270.294423 
L 1018.885961 268.757108 
L 1028.101721 279.262142 
L 1028.101721 279.262142 
L 1033.064027 272.570833 
L 1034.198293 272.442832 
L 1047.383897 287.451255 
L 1061.703768 305.800491 
" clip-path="url(#p68b7f915ca)" style="fill: none; stroke: #000000; stroke-width: 1.5; stroke-linecap: square"/>
    <defs>
     <path id="md4eed9594d" d="M -3 0 
L 3 0 
M 0 3 
L 0 -3 
" style="stroke: #000000"/>
    </defs>
    <g clip-path="url(#p68b7f915ca)">
     <use xlink:href="#md4eed9594d" x="249.016232" y="701.600045" style="stroke: #000000"/>
     <use xlink:href="#md4eed9594d" x="263.336103" y="666.251648" style="stroke: #000000"/>
     <use xlink:href="#md4eed9594d" x="277.655973" y="646.877533" style="stroke: #000000"/>
     <use xlink:href="#md4eed9594d" x="291.834039" y="631.583217" style="stroke: #000000"/>
     <use xlink:href="#md4eed9594d" x="306.153909" y="617.698108" style="stroke: #000000"/>
     <use xlink:href="#md4eed9594d" x="320.473746" y="604.492964" style="stroke: #000000"/>
     <use xlink:href="#md4eed9594d" x="334.651846" y="594.677797" style="stroke: #000000"/>
     <use xlink:href="#md4eed9594d" x="348.829912" y="577.077507" style="stroke: #000000"/>
     <use xlink:href="#md4eed9594d" x="363.008012" y="553.229414" style="stroke: #000000"/>
     <use xlink:href="#md4eed9594d" x="377.186078" y="524.78908" style="stroke: #000000"/>
     <use xlink:href="#md4eed9594d" x="391.505948" y="515.141441" style="stroke: #000000"/>
     <use xlink:href="#md4eed9594d" x="405.825785" y="509.376509" style="stroke: #000000"/>
     <use xlink:href="#md4eed9594d" x="420.003884" y="501.818042" style="stroke: #000000"/>
     <use xlink:href="#md4eed9594d" x="434.323755" y="497.8565" style="stroke: #000000"/>
     <use xlink:href="#md4eed9594d" x="448.501821" y="485.488995" style="stroke: #000000"/>
     <use xlink:href="#md4eed9594d" x="462.821691" y="456.270151" style="stroke: #000000"/>
     <use xlink:href="#md4eed9594d" x="476.999757" y="431.83078" style="stroke: #000000"/>
     <use xlink:href="#md4eed9594d" x="491.177823" y="422.143723" style="stroke: #000000"/>
     <use xlink:href="#md4eed9594d" x="505.497693" y="412.604484" style="stroke: #000000"/>
     <use xlink:href="#md4eed9594d" x="519.817564" y="402.306444" style="stroke: #000000"/>
     <use xlink:href="#md4eed9594d" x="534.137434" y="393.319062" style="stroke: #000000"/>
     <use xlink:href="#md4eed9594d" x="548.3155" y="385.868996" style="stroke: #000000"/>
     <use xlink:href="#md4eed9594d" x="562.493566" y="372.68356" style="stroke: #000000"/>
     <use xlink:href="#md4eed9594d" x="576.813436" y="370.919589" style="stroke: #000000"/>
     <use xlink:href="#md4eed9594d" x="590.991503" y="362.976794" style="stroke: #000000"/>
     <use xlink:href="#md4eed9594d" x="605.169602" y="355.240946" style="stroke: #000000"/>
     <use xlink:href="#md4eed9594d" x="619.489473" y="347.918988" style="stroke: #000000"/>
     <use xlink:href="#md4eed9594d" x="633.667539" y="337.029673" style="stroke: #000000"/>
     <use xlink:href="#md4eed9594d" x="636.361381" y="336.773563" style="stroke: #000000"/>
     <use xlink:href="#md4eed9594d" x="647.987409" y="260.991695" style="stroke: #000000"/>
     <use xlink:href="#md4eed9594d" x="662.307246" y="234.059112" style="stroke: #000000"/>
     <use xlink:href="#md4eed9594d" x="676.485345" y="215.522638" style="stroke: #000000"/>
     <use xlink:href="#md4eed9594d" x="690.805216" y="213.157538" style="stroke: #000000"/>
     <use xlink:href="#md4eed9594d" x="705.125052" y="196.217506" style="stroke: #000000"/>
     <use xlink:href="#md4eed9594d" x="719.444923" y="180.735955" style="stroke: #000000"/>
     <use xlink:href="#md4eed9594d" x="733.622989" y="226.924395" style="stroke: #000000"/>
     <use xlink:href="#md4eed9594d" x="744.823671" y="314.541619" style="stroke: #000000"/>
     <use xlink:href="#md4eed9594d" x="744.823671" y="314.541619" style="stroke: #000000"/>
     <use xlink:href="#md4eed9594d" x="747.942859" y="311.062841" style="stroke: #000000"/>
     <use xlink:href="#md4eed9594d" x="762.262729" y="309.870436" style="stroke: #000000"/>
     <use xlink:href="#md4eed9594d" x="776.582566" y="307.347663" style="stroke: #000000"/>
     <use xlink:href="#md4eed9594d" x="790.902436" y="307.219551" style="stroke: #000000"/>
     <use xlink:href="#md4eed9594d" x="805.222307" y="296.192272" style="stroke: #000000"/>
     <use xlink:href="#md4eed9594d" x="819.542177" y="285.992776" style="stroke: #000000"/>
     <use xlink:href="#md4eed9594d" x="833.720243" y="282.770326" style="stroke: #000000"/>
     <use xlink:href="#md4eed9594d" x="848.040113" y="282.592945" style="stroke: #000000"/>
     <use xlink:href="#md4eed9594d" x="862.218179" y="283.943023" style="stroke: #000000"/>
     <use xlink:href="#md4eed9594d" x="876.53805" y="277.941581" style="stroke: #000000"/>
     <use xlink:href="#md4eed9594d" x="890.716116" y="271.526246" style="stroke: #000000"/>
     <use xlink:href="#md4eed9594d" x="905.035986" y="271.516392" style="stroke: #000000"/>
     <use xlink:href="#md4eed9594d" x="919.214052" y="270.915263" style="stroke: #000000"/>
     <use xlink:href="#md4eed9594d" x="933.392152" y="265.101056" style="stroke: #000000"/>
     <use xlink:href="#md4eed9594d" x="947.711988" y="264.490071" style="stroke: #000000"/>
     <use xlink:href="#md4eed9594d" x="962.031859" y="266.993136" style="stroke: #000000"/>
     <use xlink:href="#md4eed9594d" x="976.209925" y="273.093125" style="stroke: #000000"/>
     <use xlink:href="#md4eed9594d" x="990.388025" y="270.481658" style="stroke: #000000"/>
     <use xlink:href="#md4eed9594d" x="1004.566091" y="270.294423" style="stroke: #000000"/>
     <use xlink:href="#md4eed9594d" x="1018.885961" y="268.757108" style="stroke: #000000"/>
     <use xlink:href="#md4eed9594d" x="1028.101721" y="279.262142" style="stroke: #000000"/>
     <use xlink:href="#md4eed9594d" x="1028.101721" y="279.262142" style="stroke: #000000"/>
     <use xlink:href="#md4eed9594d" x="1033.064027" y="272.570833" style="stroke: #000000"/>
     <use xlink:href="#md4eed9594d" x="1034.198293" y="272.442832" style="stroke: #000000"/>
     <use xlink:href="#md4eed9594d" x="1047.383897" y="287.451255" style="stroke: #000000"/>
     <use xlink:href="#md4eed9594d" x="1061.703768" y="305.800491" style="stroke: #000000"/>
    </g>
   </g>
   <g id="line2d_26">
    <path d="M 651.260638 308.126038 
L 636.361381 308.126038 
L 636.361381 365.421088 
L 651.260638 365.421088 
" clip-path="url(#p68b7f915ca)" style="fill: none; stroke: #00bfbf; stroke-width: 2; stroke-linecap: square"/>
   </g>
   <g id="line2d_27">
    <path d="M 729.924414 285.894094 
L 744.823671 285.894094 
L 744.823671 343.189144 
L 729.924414 343.189144 
" clip-path="url(#p68b7f915ca)" style="fill: none; stroke: #00bfbf; stroke-width: 2; stroke-linecap: square"/>
   </g>
   <g id="line2d_28">
    <path d="M 759.722928 285.894094 
L 744.823671 285.894094 
L 744.823671 343.189144 
L 759.722928 343.189144 
" clip-path="url(#p68b7f915ca)" style="fill: none; stroke: #bfbf00; stroke-width: 2; stroke-linecap: square"/>
   </g>
   <g id="line2d_29">
    <path d="M 1013.202464 250.614617 
L 1028.101721 250.614617 
L 1028.101721 307.909667 
L 1013.202464 307.909667 
" clip-path="url(#p68b7f915ca)" style="fill: none; stroke: #bfbf00; stroke-width: 2; stroke-linecap: square"/>
   </g>
   <g id="line2d_30">
    <path d="M 1043.000978 250.614617 
L 1028.101721 250.614617 
L 1028.101721 307.909667 
L 1043.000978 307.909667 
" clip-path="url(#p68b7f915ca)" style="fill: none; stroke: #008000; stroke-width: 2; stroke-linecap: square"/>
   </g>
   <g id="line2d_31">
    <path d="M 1019.299036 243.795307 
L 1034.198293 243.795307 
L 1034.198293 301.090357 
L 1019.299036 301.090357 
" clip-path="url(#p68b7f915ca)" style="fill: none; stroke: #008000; stroke-width: 2; stroke-linecap: square"/>
   </g>
   <g id="LineCollection_1">
    <path d="M 208.523636 180.735955 
L 1102.196364 180.735955 
" clip-path="url(#p68b7f915ca)" style="fill: none; stroke-dasharray: 5.55,2.4; stroke-dashoffset: 0; stroke: #ff0000; stroke-width: 1.5"/>
   </g>
   <g id="LineCollection_2">
    <path d="M 719.444923 727.640727 
L 719.444923 154.695273 
" clip-path="url(#p68b7f915ca)" style="fill: none; stroke-dasharray: 5.55,2.4; stroke-dashoffset: 0; stroke: #ff0000; stroke-width: 1.5"/>
   </g>
   <g id="patch_3">
    <path d="M 163.84 756.288 
L 163.84 126.048 
" style="fill: none; stroke: #000000; stroke-width: 0.8; stroke-linejoin: miter; stroke-linecap: square"/>
   </g>
   <g id="patch_4">
    <path d="M 1146.88 756.288 
L 1146.88 126.048 
" style="fill: none; stroke: #000000; stroke-width: 0.8; stroke-linejoin: miter; stroke-linecap: square"/>
   </g>
   <g id="patch_5">
    <path d="M 163.84 756.288 
L 1146.88 756.288 
" style="fill: none; stroke: #000000; stroke-width: 0.8; stroke-linejoin: miter; stroke-linecap: square"/>
   </g>
   <g id="patch_6">
    <path d="M 163.84 126.048 
L 1146.88 126.048 
" style="fill: none; stroke: #000000; stroke-width: 0.8; stroke-linejoin: miter; stroke-linecap: square"/>
   </g>
   <g id="text_15">
    <!-- Memory Footprint of EESR Grid Analysis -->
    <g transform="translate(535.7425 120.048)scale(0.12 -0.12)">
     <defs>
      <path id="DejaVuSans-46" d="M 628 4666 
L 3309 4666 
L 3309 4134 
L 1259 4134 
L 1259 2759 
L 3109 2759 
L 3109 2228 
L 1259 2228 
L 1259 0 
L 628 0 
L 628 4666 
z
" transform="scale(0.015625)"/>
      <path id="DejaVuSans-70" d="M 1159 525 
L 1159 -1331 
L 581 -1331 
L 581 3500 
L 1159 3500 
L 1159 2969 
Q 1341 3281 1617 3432 
Q 1894 3584 2278 3584 
Q 2916 3584 3314 3078 
Q 3713 2572 3713 1747 
Q 3713 922 3314 415 
Q 2916 -91 2278 -91 
Q 1894 -91 1617 61 
Q 1341 213 1159 525 
z
M 3116 1747 
Q 3116 2381 2855 2742 
Q 2594 3103 2138 3103 
Q 1681 3103 1420 2742 
Q 1159 2381 1159 1747 
Q 1159 1113 1420 752 
Q 1681 391 2138 391 
Q 2594 391 2855 752 
Q 3116 1113 3116 1747 
z
" transform="scale(0.015625)"/>
      <path id="DejaVuSans-66" d="M 2375 4863 
L 2375 4384 
L 1825 4384 
Q 1516 4384 1395 4259 
Q 1275 4134 1275 3809 
L 1275 3500 
L 2222 3500 
L 2222 3053 
L 1275 3053 
L 1275 0 
L 697 0 
L 697 3053 
L 147 3053 
L 147 3500 
L 697 3500 
L 697 3744 
Q 697 4328 969 4595 
Q 1241 4863 1831 4863 
L 2375 4863 
z
" transform="scale(0.015625)"/>
      <path id="DejaVuSans-45" d="M 628 4666 
L 3578 4666 
L 3578 4134 
L 1259 4134 
L 1259 2753 
L 3481 2753 
L 3481 2222 
L 1259 2222 
L 1259 531 
L 3634 531 
L 3634 0 
L 628 0 
L 628 4666 
z
" transform="scale(0.015625)"/>
      <path id="DejaVuSans-53" d="M 3425 4513 
L 3425 3897 
Q 3066 4069 2747 4153 
Q 2428 4238 2131 4238 
Q 1616 4238 1336 4038 
Q 1056 3838 1056 3469 
Q 1056 3159 1242 3001 
Q 1428 2844 1947 2747 
L 2328 2669 
Q 3034 2534 3370 2195 
Q 3706 1856 3706 1288 
Q 3706 609 3251 259 
Q 2797 -91 1919 -91 
Q 1588 -91 1214 -16 
Q 841 59 441 206 
L 441 856 
Q 825 641 1194 531 
Q 1563 422 1919 422 
Q 2459 422 2753 634 
Q 3047 847 3047 1241 
Q 3047 1584 2836 1778 
Q 2625 1972 2144 2069 
L 1759 2144 
Q 1053 2284 737 2584 
Q 422 2884 422 3419 
Q 422 4038 858 4394 
Q 1294 4750 2059 4750 
Q 2388 4750 2728 4690 
Q 3069 4631 3425 4513 
z
" transform="scale(0.015625)"/>
      <path id="DejaVuSans-52" d="M 2841 2188 
Q 3044 2119 3236 1894 
Q 3428 1669 3622 1275 
L 4263 0 
L 3584 0 
L 2988 1197 
Q 2756 1666 2539 1819 
Q 2322 1972 1947 1972 
L 1259 1972 
L 1259 0 
L 628 0 
L 628 4666 
L 2053 4666 
Q 2853 4666 3247 4331 
Q 3641 3997 3641 3322 
Q 3641 2881 3436 2590 
Q 3231 2300 2841 2188 
z
M 1259 4147 
L 1259 2491 
L 2053 2491 
Q 2509 2491 2742 2702 
Q 2975 2913 2975 3322 
Q 2975 3731 2742 3939 
Q 2509 4147 2053 4147 
L 1259 4147 
z
" transform="scale(0.015625)"/>
      <path id="DejaVuSans-47" d="M 3809 666 
L 3809 1919 
L 2778 1919 
L 2778 2438 
L 4434 2438 
L 4434 434 
Q 4069 175 3628 42 
Q 3188 -91 2688 -91 
Q 1594 -91 976 548 
Q 359 1188 359 2328 
Q 359 3472 976 4111 
Q 1594 4750 2688 4750 
Q 3144 4750 3555 4637 
Q 3966 4525 4313 4306 
L 4313 3634 
Q 3963 3931 3569 4081 
Q 3175 4231 2741 4231 
Q 1884 4231 1454 3753 
Q 1025 3275 1025 2328 
Q 1025 1384 1454 906 
Q 1884 428 2741 428 
Q 3075 428 3337 486 
Q 3600 544 3809 666 
z
" transform="scale(0.015625)"/>
      <path id="DejaVuSans-41" d="M 2188 4044 
L 1331 1722 
L 3047 1722 
L 2188 4044 
z
M 1831 4666 
L 2547 4666 
L 4325 0 
L 3669 0 
L 3244 1197 
L 1141 1197 
L 716 0 
L 50 0 
L 1831 4666 
z
" transform="scale(0.015625)"/>
      <path id="DejaVuSans-61" d="M 2194 1759 
Q 1497 1759 1228 1600 
Q 959 1441 959 1056 
Q 959 750 1161 570 
Q 1363 391 1709 391 
Q 2188 391 2477 730 
Q 2766 1069 2766 1631 
L 2766 1759 
L 2194 1759 
z
M 3341 1997 
L 3341 0 
L 2766 0 
L 2766 531 
Q 2569 213 2275 61 
Q 1981 -91 1556 -91 
Q 1019 -91 701 211 
Q 384 513 384 1019 
Q 384 1609 779 1909 
Q 1175 2209 1959 2209 
L 2766 2209 
L 2766 2266 
Q 2766 2663 2505 2880 
Q 2244 3097 1772 3097 
Q 1472 3097 1187 3025 
Q 903 2953 641 2809 
L 641 3341 
Q 956 3463 1253 3523 
Q 1550 3584 1831 3584 
Q 2591 3584 2966 3190 
Q 3341 2797 3341 1997 
z
" transform="scale(0.015625)"/>
      <path id="DejaVuSans-6c" d="M 603 4863 
L 1178 4863 
L 1178 0 
L 603 0 
L 603 4863 
z
" transform="scale(0.015625)"/>
     </defs>
     <use xlink:href="#DejaVuSans-4d"/>
     <use xlink:href="#DejaVuSans-65" x="86.279297"/>
     <use xlink:href="#DejaVuSans-6d" x="147.802734"/>
     <use xlink:href="#DejaVuSans-6f" x="245.214844"/>
     <use xlink:href="#DejaVuSans-72" x="306.396484"/>
     <use xlink:href="#DejaVuSans-79" x="347.509766"/>
     <use xlink:href="#DejaVuSans-20" x="406.689453"/>
     <use xlink:href="#DejaVuSans-46" x="438.476562"/>
     <use xlink:href="#DejaVuSans-6f" x="492.371094"/>
     <use xlink:href="#DejaVuSans-6f" x="553.552734"/>
     <use xlink:href="#DejaVuSans-74" x="614.734375"/>
     <use xlink:href="#DejaVuSans-70" x="653.943359"/>
     <use xlink:href="#DejaVuSans-72" x="717.419922"/>
     <use xlink:href="#DejaVuSans-69" x="758.533203"/>
     <use xlink:href="#DejaVuSans-6e" x="786.316406"/>
     <use xlink:href="#DejaVuSans-74" x="849.695312"/>
     <use xlink:href="#DejaVuSans-20" x="888.904297"/>
     <use xlink:href="#DejaVuSans-6f" x="920.691406"/>
     <use xlink:href="#DejaVuSans-66" x="981.873047"/>
     <use xlink:href="#DejaVuSans-20" x="1017.078125"/>
     <use xlink:href="#DejaVuSans-45" x="1048.865234"/>
     <use xlink:href="#DejaVuSans-45" x="1112.048828"/>
     <use xlink:href="#DejaVuSans-53" x="1175.232422"/>
     <use xlink:href="#DejaVuSans-52" x="1238.708984"/>
     <use xlink:href="#DejaVuSans-20" x="1308.191406"/>
     <use xlink:href="#DejaVuSans-47" x="1339.978516"/>
     <use xlink:href="#DejaVuSans-72" x="1417.46875"/>
     <use xlink:href="#DejaVuSans-69" x="1458.582031"/>
     <use xlink:href="#DejaVuSans-64" x="1486.365234"/>
     <use xlink:href="#DejaVuSans-20" x="1549.841797"/>
     <use xlink:href="#DejaVuSans-41" x="1581.628906"/>
     <use xlink:href="#DejaVuSans-6e" x="1650.037109"/>
     <use xlink:href="#DejaVuSans-61" x="1713.416016"/>
     <use xlink:href="#DejaVuSans-6c" x="1774.695312"/>
     <use xlink:href="#DejaVuSans-79" x="1802.478516"/>
     <use xlink:href="#DejaVuSans-73" x="1861.658203"/>
     <use xlink:href="#DejaVuSans-69" x="1913.757812"/>
     <use xlink:href="#DejaVuSans-73" x="1941.541016"/>
    </g>
   </g>
   <g id="legend_1">
    <g id="patch_7">
     <path d="M 1153.88 472.163313 
L 1373.065938 472.163313 
Q 1375.065938 472.163313 1375.065938 470.163313 
L 1375.065938 412.172687 
Q 1375.065938 410.172687 1373.065938 410.172687 
L 1153.88 410.172687 
Q 1151.88 410.172687 1151.88 412.172687 
L 1151.88 470.163313 
Q 1151.88 472.163313 1153.88 472.163313 
z
" style="fill: #ffffff; opacity: 0.5; stroke: #cccccc; stroke-linejoin: miter"/>
    </g>
    <g id="line2d_32">
     <path d="M 1155.88 418.271125 
L 1165.88 418.271125 
L 1175.88 418.271125 
" style="fill: none; stroke: #000000; stroke-width: 1.5; stroke-linecap: square"/>
     <g>
      <use xlink:href="#md4eed9594d" x="1165.88" y="418.271125" style="stroke: #000000"/>
     </g>
    </g>
    <g id="text_16">
     <!-- 11 / 08 / 2022 - start at 02:42:55.037 -->
     <g transform="translate(1183.88 421.771125)scale(0.1 -0.1)">
      <defs>
       <path id="DejaVuSans-2f" d="M 1625 4666 
L 2156 4666 
L 531 -594 
L 0 -594 
L 1625 4666 
z
" transform="scale(0.015625)"/>
       <path id="DejaVuSans-38" d="M 2034 2216 
Q 1584 2216 1326 1975 
Q 1069 1734 1069 1313 
Q 1069 891 1326 650 
Q 1584 409 2034 409 
Q 2484 409 2743 651 
Q 3003 894 3003 1313 
Q 3003 1734 2745 1975 
Q 2488 2216 2034 2216 
z
M 1403 2484 
Q 997 2584 770 2862 
Q 544 3141 544 3541 
Q 544 4100 942 4425 
Q 1341 4750 2034 4750 
Q 2731 4750 3128 4425 
Q 3525 4100 3525 3541 
Q 3525 3141 3298 2862 
Q 3072 2584 2669 2484 
Q 3125 2378 3379 2068 
Q 3634 1759 3634 1313 
Q 3634 634 3220 271 
Q 2806 -91 2034 -91 
Q 1263 -91 848 271 
Q 434 634 434 1313 
Q 434 1759 690 2068 
Q 947 2378 1403 2484 
z
M 1172 3481 
Q 1172 3119 1398 2916 
Q 1625 2713 2034 2713 
Q 2441 2713 2670 2916 
Q 2900 3119 2900 3481 
Q 2900 3844 2670 4047 
Q 2441 4250 2034 4250 
Q 1625 4250 1398 4047 
Q 1172 3844 1172 3481 
z
" transform="scale(0.015625)"/>
       <path id="DejaVuSans-2d" d="M 313 2009 
L 1997 2009 
L 1997 1497 
L 313 1497 
L 313 2009 
z
" transform="scale(0.015625)"/>
       <path id="DejaVuSans-3a" d="M 750 794 
L 1409 794 
L 1409 0 
L 750 0 
L 750 794 
z
M 750 3309 
L 1409 3309 
L 1409 2516 
L 750 2516 
L 750 3309 
z
" transform="scale(0.015625)"/>
       <path id="DejaVuSans-2e" d="M 684 794 
L 1344 794 
L 1344 0 
L 684 0 
L 684 794 
z
" transform="scale(0.015625)"/>
       <path id="DejaVuSans-37" d="M 525 4666 
L 3525 4666 
L 3525 4397 
L 1831 0 
L 1172 0 
L 2766 4134 
L 525 4134 
L 525 4666 
z
" transform="scale(0.015625)"/>
      </defs>
      <use xlink:href="#DejaVuSans-31"/>
      <use xlink:href="#DejaVuSans-31" x="63.623047"/>
      <use xlink:href="#DejaVuSans-20" x="127.246094"/>
      <use xlink:href="#DejaVuSans-2f" x="159.033203"/>
      <use xlink:href="#DejaVuSans-20" x="192.724609"/>
      <use xlink:href="#DejaVuSans-30" x="224.511719"/>
      <use xlink:href="#DejaVuSans-38" x="288.134766"/>
      <use xlink:href="#DejaVuSans-20" x="351.757812"/>
      <use xlink:href="#DejaVuSans-2f" x="383.544922"/>
      <use xlink:href="#DejaVuSans-20" x="417.236328"/>
      <use xlink:href="#DejaVuSans-32" x="449.023438"/>
      <use xlink:href="#DejaVuSans-30" x="512.646484"/>
      <use xlink:href="#DejaVuSans-32" x="576.269531"/>
      <use xlink:href="#DejaVuSans-32" x="639.892578"/>
      <use xlink:href="#DejaVuSans-20" x="703.515625"/>
      <use xlink:href="#DejaVuSans-2d" x="735.302734"/>
      <use xlink:href="#DejaVuSans-20" x="771.386719"/>
      <use xlink:href="#DejaVuSans-73" x="803.173828"/>
      <use xlink:href="#DejaVuSans-74" x="855.273438"/>
      <use xlink:href="#DejaVuSans-61" x="894.482422"/>
      <use xlink:href="#DejaVuSans-72" x="955.761719"/>
      <use xlink:href="#DejaVuSans-74" x="996.875"/>
      <use xlink:href="#DejaVuSans-20" x="1036.083984"/>
      <use xlink:href="#DejaVuSans-61" x="1067.871094"/>
      <use xlink:href="#DejaVuSans-74" x="1129.150391"/>
      <use xlink:href="#DejaVuSans-20" x="1168.359375"/>
      <use xlink:href="#DejaVuSans-30" x="1200.146484"/>
      <use xlink:href="#DejaVuSans-32" x="1263.769531"/>
      <use xlink:href="#DejaVuSans-3a" x="1327.392578"/>
      <use xlink:href="#DejaVuSans-34" x="1361.083984"/>
      <use xlink:href="#DejaVuSans-32" x="1424.707031"/>
      <use xlink:href="#DejaVuSans-3a" x="1488.330078"/>
      <use xlink:href="#DejaVuSans-35" x="1522.021484"/>
      <use xlink:href="#DejaVuSans-35" x="1585.644531"/>
      <use xlink:href="#DejaVuSans-2e" x="1649.267578"/>
      <use xlink:href="#DejaVuSans-30" x="1681.054688"/>
      <use xlink:href="#DejaVuSans-33" x="1744.677734"/>
      <use xlink:href="#DejaVuSans-37" x="1808.300781"/>
     </g>
    </g>
    <g id="line2d_33">
     <path d="M 1155.88 432.94925 
L 1165.88 432.94925 
L 1175.88 432.94925 
" style="fill: none; stroke: #00bfbf; stroke-width: 2; stroke-linecap: square"/>
    </g>
    <g id="text_17">
     <!-- preprocess 0.765s -->
     <g transform="translate(1183.88 436.44925)scale(0.1 -0.1)">
      <use xlink:href="#DejaVuSans-70"/>
      <use xlink:href="#DejaVuSans-72" x="63.476562"/>
      <use xlink:href="#DejaVuSans-65" x="102.339844"/>
      <use xlink:href="#DejaVuSans-70" x="163.863281"/>
      <use xlink:href="#DejaVuSans-72" x="227.339844"/>
      <use xlink:href="#DejaVuSans-6f" x="266.203125"/>
      <use xlink:href="#DejaVuSans-63" x="327.384766"/>
      <use xlink:href="#DejaVuSans-65" x="382.365234"/>
      <use xlink:href="#DejaVuSans-73" x="443.888672"/>
      <use xlink:href="#DejaVuSans-73" x="495.988281"/>
      <use xlink:href="#DejaVuSans-20" x="548.087891"/>
      <use xlink:href="#DejaVuSans-30" x="579.875"/>
      <use xlink:href="#DejaVuSans-2e" x="643.498047"/>
      <use xlink:href="#DejaVuSans-37" x="675.285156"/>
      <use xlink:href="#DejaVuSans-36" x="738.908203"/>
      <use xlink:href="#DejaVuSans-35" x="802.53125"/>
      <use xlink:href="#DejaVuSans-73" x="866.154297"/>
     </g>
    </g>
    <g id="line2d_34">
     <path d="M 1155.88 447.627375 
L 1165.88 447.627375 
L 1175.88 447.627375 
" style="fill: none; stroke: #bfbf00; stroke-width: 2; stroke-linecap: square"/>
    </g>
    <g id="text_18">
     <!--  __init__ 1.998s -->
     <g transform="translate(1183.88 451.127375)scale(0.1 -0.1)">
      <defs>
       <path id="DejaVuSans-5f" d="M 3263 -1063 
L 3263 -1509 
L -63 -1509 
L -63 -1063 
L 3263 -1063 
z
" transform="scale(0.015625)"/>
       <path id="DejaVuSans-39" d="M 703 97 
L 703 672 
Q 941 559 1184 500 
Q 1428 441 1663 441 
Q 2288 441 2617 861 
Q 2947 1281 2994 2138 
Q 2813 1869 2534 1725 
Q 2256 1581 1919 1581 
Q 1219 1581 811 2004 
Q 403 2428 403 3163 
Q 403 3881 828 4315 
Q 1253 4750 1959 4750 
Q 2769 4750 3195 4129 
Q 3622 3509 3622 2328 
Q 3622 1225 3098 567 
Q 2575 -91 1691 -91 
Q 1453 -91 1209 -44 
Q 966 3 703 97 
z
M 1959 2075 
Q 2384 2075 2632 2365 
Q 2881 2656 2881 3163 
Q 2881 3666 2632 3958 
Q 2384 4250 1959 4250 
Q 1534 4250 1286 3958 
Q 1038 3666 1038 3163 
Q 1038 2656 1286 2365 
Q 1534 2075 1959 2075 
z
" transform="scale(0.015625)"/>
      </defs>
      <use xlink:href="#DejaVuSans-20"/>
      <use xlink:href="#DejaVuSans-5f" x="31.787109"/>
      <use xlink:href="#DejaVuSans-5f" x="81.787109"/>
      <use xlink:href="#DejaVuSans-69" x="131.787109"/>
      <use xlink:href="#DejaVuSans-6e" x="159.570312"/>
      <use xlink:href="#DejaVuSans-69" x="222.949219"/>
      <use xlink:href="#DejaVuSans-74" x="250.732422"/>
      <use xlink:href="#DejaVuSans-5f" x="289.941406"/>
      <use xlink:href="#DejaVuSans-5f" x="339.941406"/>
      <use xlink:href="#DejaVuSans-20" x="389.941406"/>
      <use xlink:href="#DejaVuSans-31" x="421.728516"/>
      <use xlink:href="#DejaVuSans-2e" x="485.351562"/>
      <use xlink:href="#DejaVuSans-39" x="517.138672"/>
      <use xlink:href="#DejaVuSans-39" x="580.761719"/>
      <use xlink:href="#DejaVuSans-38" x="644.384766"/>
      <use xlink:href="#DejaVuSans-73" x="708.007812"/>
     </g>
    </g>
    <g id="line2d_35">
     <path d="M 1155.88 462.583625 
L 1165.88 462.583625 
L 1175.88 462.583625 
" style="fill: none; stroke: #008000; stroke-width: 2; stroke-linecap: square"/>
    </g>
    <g id="text_19">
     <!-- analyze 0.043s -->
     <g transform="translate(1183.88 466.083625)scale(0.1 -0.1)">
      <defs>
       <path id="DejaVuSans-7a" d="M 353 3500 
L 3084 3500 
L 3084 2975 
L 922 459 
L 3084 459 
L 3084 0 
L 275 0 
L 275 525 
L 2438 3041 
L 353 3041 
L 353 3500 
z
" transform="scale(0.015625)"/>
      </defs>
      <use xlink:href="#DejaVuSans-61"/>
      <use xlink:href="#DejaVuSans-6e" x="61.279297"/>
      <use xlink:href="#DejaVuSans-61" x="124.658203"/>
      <use xlink:href="#DejaVuSans-6c" x="185.9375"/>
      <use xlink:href="#DejaVuSans-79" x="213.720703"/>
      <use xlink:href="#DejaVuSans-7a" x="272.900391"/>
      <use xlink:href="#DejaVuSans-65" x="325.390625"/>
      <use xlink:href="#DejaVuSans-20" x="386.914062"/>
      <use xlink:href="#DejaVuSans-30" x="418.701172"/>
      <use xlink:href="#DejaVuSans-2e" x="482.324219"/>
      <use xlink:href="#DejaVuSans-30" x="514.111328"/>
      <use xlink:href="#DejaVuSans-34" x="577.734375"/>
      <use xlink:href="#DejaVuSans-33" x="641.357422"/>
      <use xlink:href="#DejaVuSans-73" x="704.980469"/>
     </g>
    </g>
   </g>
  </g>
 </g>
 <defs>
  <clipPath id="p68b7f915ca">
   <rect x="163.84" y="126.048" width="983.04" height="630.24"/>
  </clipPath>
 </defs>
</svg>
